<svg width="300" height="300" viewBox="0 0 300 300" fill="none" xmlns="http://www.w3.org/2000/svg">
<g clip-path="url(#clip0_15_420)">
<path d="M24.9594 147.891C27.4688 146.606 31.1969 146.063 36.9562 145.488C31.1969 144.909 27.4688 144.369 24.9594 143.084C25.825 140.413 28.0812 137.394 31.7469 132.913C27.2625 136.578 24.2437 138.828 21.5625 139.691C20.2812 137.191 19.7375 133.466 19.1625 127.713C18.5812 133.466 18.0406 137.191 16.7562 139.691C14.075 138.828 11.0531 136.578 6.57187 132.916C10.2437 137.394 12.4937 140.413 13.3531 143.084C10.85 144.369 7.12187 144.909 1.35625 145.488C7.12187 146.063 10.85 146.606 13.35 147.891C12.4875 150.566 10.2375 153.578 6.56562 158.066C11.0531 154.397 14.075 152.15 16.7562 151.291C18.0406 153.791 18.5812 157.509 19.1625 163.275C19.7375 157.509 20.2812 153.791 21.5625 151.291C24.2437 152.15 27.2625 154.397 31.7469 158.066C28.0812 153.578 25.825 150.566 24.9594 147.891Z" fill="#FBC439"/>
<path d="M24.9592 147.891C27.4686 146.607 31.1967 146.063 36.9561 145.488C31.1967 144.91 27.4686 144.369 24.9592 143.085C25.8248 140.413 28.0811 137.394 31.7467 132.913C27.2623 136.579 24.2436 138.829 21.5623 139.691C20.2811 137.191 19.7373 133.466 19.1623 127.713C18.5811 133.466 18.0404 137.191 16.7561 139.691C14.0748 138.829 11.053 136.579 6.57171 132.916C10.2436 137.394 12.4936 140.413 13.3529 143.085C10.8498 144.369 7.12171 144.91 1.35609 145.488C7.12171 146.063 10.8498 146.607 13.3498 147.891C12.4873 150.566 10.2373 153.579 6.56546 158.066C11.053 154.398 14.0748 152.151 16.7561 151.291C18.0404 153.791 18.5811 157.51 19.1623 163.276C19.7373 157.51 20.2811 153.791 21.5623 151.291C24.2436 152.151 27.2623 154.398 31.7467 158.066C28.0811 153.579 25.8248 150.566 24.9592 147.891Z" stroke="#0A2F4D" stroke-width="4.42243" stroke-miterlimit="10" stroke-linejoin="round"/>
<path d="M286.644 106.191C289.153 104.903 292.878 104.366 298.644 103.784C292.878 103.209 289.153 102.672 286.644 101.388C287.506 98.7094 289.763 95.6906 293.428 91.2156C288.947 94.875 285.925 97.125 283.247 97.9906C281.963 95.4875 281.419 91.7625 280.847 86.0031C280.266 91.7625 279.728 95.4938 278.438 97.9906C275.759 97.125 272.738 94.875 268.256 91.2156C271.925 95.6938 274.175 98.7094 275.041 101.388C272.531 102.672 268.806 103.209 263.041 103.784C268.806 104.359 272.531 104.903 275.034 106.191C274.175 108.863 271.919 111.881 268.253 116.363C272.738 112.694 275.759 110.447 278.438 109.588C279.728 112.084 280.266 115.813 280.847 121.569C281.419 115.813 281.963 112.084 283.247 109.588C285.925 110.447 288.947 112.7 293.428 116.363C289.763 111.881 287.506 108.863 286.644 106.191Z" fill="#FBC439"/>
<path d="M286.643 106.191C289.153 104.904 292.878 104.366 298.643 103.785C292.878 103.21 289.153 102.673 286.643 101.388C287.506 98.7101 289.762 95.6914 293.428 91.2164C288.946 94.8758 285.925 97.1258 283.246 97.9914C281.962 95.4883 281.418 91.7633 280.846 86.004C280.265 91.7633 279.728 95.4946 278.437 97.9914C275.759 97.1258 272.737 94.8758 268.256 91.2164C271.925 95.6946 274.175 98.7101 275.04 101.388C272.531 102.673 268.806 103.21 263.04 103.785C268.806 104.36 272.531 104.904 275.034 106.191C274.175 108.863 271.918 111.882 268.253 116.363C272.737 112.695 275.759 110.448 278.437 109.588C279.728 112.085 280.265 115.813 280.846 121.569C281.418 115.813 281.962 112.085 283.246 109.588C285.925 110.448 288.946 112.701 293.428 116.363C289.762 111.882 287.506 108.863 286.643 106.191Z" stroke="#0A2F4D" stroke-width="4.42243" stroke-miterlimit="10" stroke-linejoin="round"/>
<path d="M140.694 254.222C142.212 253.441 144.481 253.109 147.984 252.756C144.481 252.409 142.212 252.078 140.694 251.297C141.212 249.669 142.587 247.834 144.816 245.113C142.091 247.338 140.253 248.713 138.625 249.234C137.844 247.713 137.509 245.447 137.162 241.947C136.809 245.447 136.484 247.713 135.7 249.234C134.072 248.713 132.237 247.338 129.503 245.113C131.741 247.834 133.109 249.669 133.631 251.297C132.106 252.078 129.841 252.409 126.337 252.756C129.841 253.109 132.106 253.441 133.631 254.222C133.109 255.85 131.741 257.681 129.503 260.406C132.237 258.175 134.072 256.806 135.7 256.284C136.484 257.806 136.809 260.072 137.162 263.572C137.509 260.072 137.844 257.806 138.625 256.284C140.253 256.806 142.091 258.175 144.816 260.406C142.587 257.681 141.212 255.85 140.694 254.222Z" fill="#FBC439"/>
<mask id="mask0_15_420" style="mask-type:luminance" maskUnits="userSpaceOnUse" x="124" y="240" width="26" height="26">
<path d="M124.8 240H149.6V265.003H124.8V240Z" fill="white"/>
</mask>
<g mask="url(#mask0_15_420)">
<path d="M140.693 254.222C142.212 253.441 144.481 253.11 147.984 252.757C144.481 252.41 142.212 252.079 140.693 251.297C141.212 249.669 142.587 247.835 144.815 245.113C142.09 247.338 140.253 248.713 138.625 249.235C137.843 247.713 137.509 245.447 137.162 241.947C136.809 245.447 136.484 247.713 135.7 249.235C134.072 248.713 132.237 247.338 129.503 245.113C131.74 247.835 133.109 249.669 133.631 251.297C132.106 252.079 129.84 252.41 126.337 252.757C129.84 253.11 132.106 253.441 133.631 254.222C133.109 255.85 131.74 257.682 129.503 260.407C132.237 258.175 134.072 256.807 135.7 256.285C136.484 257.807 136.809 260.072 137.162 263.572C137.509 260.072 137.843 257.807 138.625 256.285C140.253 256.807 142.09 258.175 144.815 260.407C142.587 257.682 141.212 255.85 140.693 254.222Z" stroke="#0A2F4D" stroke-width="4.42243" stroke-miterlimit="10" stroke-linejoin="round"/>
</g>
<path d="M93.8313 13.5031C95.35 12.7187 97.6219 12.3937 101.125 12.0406C97.6219 11.6906 95.35 11.3625 93.8313 10.5812C94.3531 8.95312 95.7219 7.11562 97.9531 4.39687C95.225 6.62187 93.3906 7.99062 91.7625 8.51875C90.9781 6.99687 90.6469 4.72812 90.3 1.23125C89.9469 4.72812 89.6188 6.99687 88.8375 8.51875C87.2094 7.99062 85.3719 6.62187 82.6438 4.39687C84.875 7.11562 86.2438 8.95312 86.7688 10.5812C85.2438 11.3625 82.9781 11.6906 79.4719 12.0406C82.9781 12.3937 85.2438 12.7187 86.7688 13.5031C86.2438 15.1281 84.875 16.9687 82.6406 19.6906C85.3719 17.4594 87.2094 16.0906 88.8375 15.5687C89.6188 17.0906 89.9469 19.3562 90.3 22.8562C90.6469 19.3562 90.9781 17.0906 91.7625 15.5687C93.3906 16.0906 95.225 17.4594 97.9531 19.6906C95.7219 16.9687 94.3531 15.1281 93.8313 13.5031Z" fill="#FBC439"/>
<path d="M93.831 13.5041C95.3497 12.7197 97.6216 12.3948 101.125 12.0416C97.6216 11.6885 95.3497 11.3635 93.831 10.5823C94.3529 8.95414 95.7216 7.11664 97.9529 4.39789C95.2247 6.62289 93.3904 7.99165 91.7591 8.51977C90.9779 6.9979 90.6466 4.72914 90.2997 1.23227C89.9466 4.72914 89.6185 6.9979 88.8372 8.51977C87.2091 7.99165 85.3716 6.62289 82.6435 4.39789C84.8748 7.11664 86.2435 8.95414 86.7685 10.5823C85.2435 11.3635 82.9779 11.6885 79.4716 12.0416C82.9779 12.3948 85.2435 12.7197 86.7685 13.5041C86.2435 15.1291 84.8747 16.9697 82.6404 19.6916C85.3716 17.4604 87.2091 16.0916 88.8372 15.5697C89.6185 17.0916 89.9466 19.3572 90.2997 22.8572C90.6466 19.3572 90.9779 17.0916 91.7591 15.5697C93.3904 16.0916 95.2247 17.4604 97.9529 19.6916C95.7216 16.9697 94.3529 15.1291 93.831 13.5041Z" stroke="#0A2F4D" stroke-width="4.42243" stroke-miterlimit="10" stroke-linejoin="round"/>
<path d="M172.756 23.7531C173.687 23.275 175.084 23.0687 177.231 22.8562C175.084 22.6406 173.687 22.4375 172.756 21.9594C173.078 20.9594 173.916 19.8375 175.284 18.1625C173.616 19.5312 172.484 20.3719 171.484 20.6906C171.006 19.7594 170.806 18.3656 170.587 16.2156C170.375 18.3656 170.172 19.7594 169.691 20.6906C168.691 20.3719 167.559 19.5312 165.891 18.1625C167.259 19.8375 168.1 20.9594 168.419 21.9594C167.487 22.4375 166.091 22.6406 163.947 22.8562C166.091 23.0687 167.487 23.275 168.419 23.7531C168.1 24.7531 167.259 25.875 165.891 27.55C167.559 26.1812 168.691 25.3437 169.691 25.0219C170.172 25.9531 170.375 27.3437 170.587 29.4969C170.806 27.3437 171.006 25.9531 171.484 25.0219C172.484 25.3437 173.616 26.1812 175.284 27.55C173.916 25.875 173.078 24.7531 172.756 23.7531Z" fill="#FBC439"/>
<path d="M172.756 23.7541C173.687 23.276 175.084 23.0697 177.231 22.8572C175.084 22.6416 173.687 22.4385 172.756 21.9604C173.078 20.9604 173.915 19.8385 175.284 18.1635C173.615 19.5322 172.484 20.3729 171.484 20.6916C171.006 19.7604 170.806 18.3666 170.587 16.2166C170.375 18.3666 170.172 19.7604 169.69 20.6916C168.69 20.3729 167.559 19.5322 165.89 18.1635C167.259 19.8385 168.1 20.9604 168.418 21.9604C167.487 22.4385 166.09 22.6416 163.947 22.8572C166.09 23.0697 167.487 23.276 168.418 23.7541C168.1 24.7541 167.259 25.876 165.89 27.551C167.559 26.1822 168.69 25.3447 169.69 25.0228C170.172 25.9541 170.375 27.3447 170.587 29.4978C170.806 27.3447 171.006 25.9541 171.484 25.0228C172.484 25.3447 173.615 26.1822 175.284 27.551C173.915 25.876 173.078 24.7541 172.756 23.7541Z" stroke="#0A2F4D" stroke-width="4.42243" stroke-miterlimit="10" stroke-linejoin="round"/>
<path d="M61.3281 186.175C62.1937 185.731 63.4812 185.55 65.4719 185.347C63.4812 185.15 62.1937 184.962 61.3281 184.519C61.6281 183.597 62.4031 182.556 63.6719 181.006C62.1219 182.275 61.0781 183.047 60.1562 183.347C59.7156 182.481 59.525 181.197 59.3281 179.212C59.1312 181.197 58.9437 182.481 58.4969 183.347C57.575 183.047 56.5312 182.275 54.9812 181.012C56.2469 182.556 57.025 183.597 57.325 184.519C56.4594 184.962 55.1687 185.15 53.1812 185.347C55.1687 185.55 56.4594 185.731 57.3187 186.175C57.025 187.103 56.2469 188.144 54.9812 189.687C56.5312 188.425 57.575 187.647 58.4969 187.35C58.9437 188.212 59.1312 189.497 59.3281 191.484C59.525 189.497 59.7156 188.212 60.1562 187.35C61.0781 187.647 62.1219 188.425 63.6719 189.687C62.4031 188.144 61.6281 187.103 61.3281 186.175Z" fill="#FBC439"/>
<path d="M61.3279 186.176C62.1935 185.732 63.481 185.551 65.4717 185.347C63.481 185.151 62.1935 184.963 61.3279 184.519C61.6279 183.597 62.4029 182.557 63.6716 181.007C62.1216 182.276 61.0779 183.047 60.156 183.347C59.7154 182.482 59.5248 181.197 59.3279 179.213C59.131 181.197 58.9435 182.482 58.4967 183.347C57.5748 183.047 56.531 182.276 54.981 181.013C56.2467 182.557 57.0248 183.597 57.3248 184.519C56.4592 184.963 55.1685 185.151 53.181 185.347C55.1685 185.551 56.4592 185.732 57.3185 186.176C57.0248 187.104 56.2467 188.144 54.981 189.688C56.531 188.426 57.5748 187.647 58.4967 187.351C58.9435 188.213 59.131 189.497 59.3279 191.485C59.5248 189.497 59.7154 188.213 60.156 187.351C61.0779 187.647 62.1216 188.426 63.6716 189.688C62.4029 188.144 61.6279 187.104 61.3279 186.176Z" stroke="#0A2F4D" stroke-width="4.42243" stroke-miterlimit="10" stroke-linejoin="round"/>
<path d="M226.584 50.6813C223.462 53.9313 218.303 54.0406 215.05 50.9156C211.8 47.8031 211.697 42.65 214.819 39.4C217.934 36.1531 223.1 36.05 226.344 39.1625C229.597 42.2813 229.7 47.4406 226.584 50.6813Z" fill="#FBC439"/>
<path d="M226.584 50.6821C223.462 53.9321 218.303 54.0384 215.05 50.9165C211.8 47.804 211.697 42.6509 214.818 39.4009C217.934 36.1541 223.1 36.0509 226.343 39.1634C229.596 42.2822 229.7 47.4415 226.584 50.6821Z" stroke="#0A2F4D" stroke-width="4.42243" stroke-miterlimit="10" stroke-linejoin="round"/>
<path d="M268.928 186.519C265.806 189.759 260.647 189.869 257.394 186.75C254.15 183.631 254.041 178.478 257.163 175.231C260.278 171.984 265.441 171.884 268.694 174.997C271.941 178.116 272.044 183.269 268.928 186.519Z" fill="#FBC439"/>
<path d="M268.928 186.519C265.806 189.76 260.646 189.869 257.393 186.751C254.15 183.632 254.04 178.479 257.162 175.232C260.278 171.985 265.44 171.885 268.693 174.997C271.94 178.116 272.043 183.269 268.928 186.519Z" stroke="#0A2F4D" stroke-width="4.42243" stroke-miterlimit="10" stroke-linejoin="round"/>
<path d="M168.447 228.081C163.603 233.116 155.591 233.284 150.547 228.444C145.506 223.606 145.341 215.603 150.184 210.563C155.028 205.528 163.038 205.363 168.084 210.2C173.122 215.038 173.294 223.041 168.447 228.081Z" fill="#FBC439"/>
<path d="M168.447 228.082C163.603 233.116 155.59 233.285 150.547 228.444C145.506 223.607 145.34 215.604 150.184 210.563C155.028 205.529 163.037 205.363 168.084 210.201C173.122 215.038 173.293 223.041 168.447 228.082Z" stroke="#0A2F4D" stroke-width="4.42243" stroke-miterlimit="10" stroke-linejoin="round"/>
<path d="M54.2562 94.8813C52.25 96.975 48.925 97.0375 46.8312 95.0313C44.7406 93.0219 44.6719 89.7031 46.6812 87.6156C48.6875 85.5219 52.0156 85.4531 54.1062 87.4656C56.2 89.4688 56.2687 92.7938 54.2562 94.8813Z" fill="#FBC439"/>
<path d="M54.256 94.882C52.2498 96.9758 48.9248 97.0383 46.831 95.0321C44.7404 93.0227 44.6717 89.7039 46.681 87.6164C48.6873 85.5227 52.0154 85.4539 54.106 87.4664C56.1998 89.4696 56.2685 92.7945 54.256 94.882Z" stroke="#0A2F4D" stroke-width="4.42243" stroke-miterlimit="10" stroke-linejoin="round"/>
<path d="M159.734 74.054C159.734 74.054 194.215 49.2853 207.387 45.4166" stroke="#0A2F4D" stroke-width="4.42243" stroke-miterlimit="10" stroke-linecap="round" stroke-linejoin="round"/>
<path d="M66.2029 172.088C66.2029 172.088 89.0997 138.548 115.959 113.269" stroke="#0A2F4D" stroke-width="4.42243" stroke-miterlimit="10" stroke-linecap="round" stroke-linejoin="round"/>
<path d="M211.9 120.647C211.9 121.853 211.862 123.044 211.784 124.234C211.744 125.272 211.666 126.297 211.556 127.319C209.65 146.266 199.634 162.825 185.059 173.522C184.081 174.237 183.075 174.934 182.053 175.6C171.775 182.284 159.5 186.172 146.316 186.172C142.209 186.172 138.2 185.797 134.306 185.072C127.8 183.866 121.634 181.709 115.959 178.744C115.047 178.259 114.131 177.762 113.25 177.241C111.237 176.066 109.297 174.791 107.425 173.412C91.2312 161.478 80.7219 142.287 80.7219 120.647C80.7219 116.606 81.0937 112.659 81.7937 108.822C81.975 107.8 82.1937 106.791 82.4125 105.784C85.6062 92.0687 93.0875 80.0156 103.391 71.1125C104.184 70.4437 104.972 69.7812 105.797 69.1281C116.95 60.3687 131.025 55.1375 146.316 55.1375C157.209 55.1375 167.497 57.8 176.534 62.4875C177.494 63 178.437 63.5062 179.387 64.0656C198.831 75.4312 211.9 96.5125 211.9 120.647Z" fill="#D3D2D2"/>
<path d="M211.9 120.648C211.9 121.854 211.862 123.045 211.784 124.235C211.743 125.273 211.665 126.298 211.556 127.319C209.65 146.266 199.634 162.826 185.059 173.522C184.081 174.238 183.075 174.935 182.053 175.601C171.775 182.285 159.5 186.172 146.315 186.172C142.209 186.172 138.2 185.797 134.306 185.072C127.8 183.866 121.634 181.71 115.959 178.744C115.047 178.26 114.131 177.763 113.25 177.241C111.237 176.066 109.297 174.791 107.425 173.413C91.231 161.479 80.7216 142.288 80.7216 120.648C80.7216 116.607 81.0935 112.66 81.7935 108.823C81.9747 107.801 82.1935 106.791 82.4122 105.785C85.606 92.0696 93.0872 80.0165 103.39 71.1134C104.184 70.4446 104.972 69.7821 105.797 69.129C116.95 60.3696 131.025 55.1384 146.315 55.1384C157.209 55.1384 167.497 57.8009 176.534 62.4884C177.493 63.0009 178.437 63.5071 179.387 64.0665C198.831 75.4321 211.9 96.5133 211.9 120.648Z" stroke="#0A2F4D" stroke-width="4.42243" stroke-miterlimit="10" stroke-linecap="round" stroke-linejoin="round"/>
<path d="M148.681 55.2031C147.891 55.175 147.109 55.1375 146.316 55.1375C131.025 55.1375 116.95 60.3687 105.797 69.1281C104.972 69.7812 104.184 70.4437 103.391 71.1125C93.0875 80.0156 85.6062 92.0687 82.4125 105.784C82.1937 106.791 81.975 107.8 81.7937 108.822C81.0937 112.659 80.7219 116.606 80.7219 120.647C80.7219 121.444 80.7562 122.231 80.7875 123.019C103.419 100.413 126.047 77.8094 148.681 55.2031Z" fill="#55BEB3"/>
<path d="M148.681 55.204C147.89 55.1728 147.109 55.1384 146.315 55.1384C131.025 55.1384 116.95 60.3696 105.797 69.129C104.972 69.7821 104.184 70.4446 103.39 71.1134C93.0872 80.0165 85.606 92.0696 82.4122 105.785C82.1935 106.791 81.9747 107.801 81.7935 108.823C81.0935 112.66 80.7216 116.607 80.7216 120.648C80.7216 121.444 80.756 122.232 80.7872 123.019C103.418 100.413 126.047 77.8102 148.681 55.204Z" stroke="#0A2F4D" stroke-width="4.42243" stroke-miterlimit="10" stroke-linejoin="round"/>
<path d="M142.622 186.056C143.847 186.125 145.075 186.172 146.316 186.172C159.5 186.172 171.775 182.284 182.053 175.6C183.075 174.934 184.081 174.238 185.059 173.522C199.634 162.825 209.65 146.266 211.556 127.319C211.666 126.297 211.744 125.272 211.784 124.234C211.863 123.044 211.9 121.853 211.9 120.647C211.9 119.413 211.847 118.191 211.778 116.975C188.725 139.997 165.678 163.031 142.622 186.056Z" fill="#FBC439"/>
<path d="M142.622 186.057C143.847 186.126 145.075 186.172 146.315 186.172C159.5 186.172 171.775 182.285 182.053 175.601C183.075 174.935 184.081 174.238 185.059 173.522C199.634 162.826 209.65 146.266 211.556 127.319C211.665 126.298 211.743 125.273 211.784 124.235C211.862 123.044 211.9 121.854 211.9 120.648C211.9 119.413 211.846 118.191 211.778 116.976C188.725 139.998 165.678 163.032 142.622 186.057Z" stroke="#0A2F4D" stroke-width="4.42243" stroke-miterlimit="10" stroke-linejoin="round"/>
<path d="M185.059 173.522C184.081 174.238 183.075 174.934 182.053 175.6C182.131 173.863 181.756 172.134 180.703 170.319C177.947 165.541 173.331 165.056 167.963 164.513C162.556 163.959 156.422 163.338 152.859 157.178C149.306 151.022 151.863 145.394 154.109 140.444C156.328 135.538 158.238 131.313 155.478 126.531C152.728 121.744 148.1 121.284 142.753 120.725C137.328 120.181 131.194 119.547 127.647 113.384C124.097 107.241 126.638 101.622 128.881 96.6625C131.103 91.7594 133.019 87.5375 130.263 82.75C127.509 77.9688 122.888 77.4875 117.528 76.95C112.6 76.4531 107.038 75.8781 103.391 71.1125C104.184 70.4438 104.972 69.7813 105.797 69.1281C108.597 72.9406 112.906 73.3688 117.838 73.8625C123.256 74.4219 129.397 75.0438 132.947 81.2031C136.494 87.3656 133.953 92.9844 131.703 97.9375C129.491 102.828 127.566 107.069 130.325 111.85C133.081 116.638 137.703 117.103 143.066 117.641C148.488 118.2 154.622 118.819 158.175 124.981C161.722 131.141 159.181 136.759 156.928 141.713C154.716 146.619 152.797 150.85 155.55 155.631C158.316 160.413 162.928 160.894 168.291 161.431C173.7 161.991 179.853 162.613 183.4 168.772C184.328 170.397 184.841 171.978 185.059 173.522Z" fill="#0A2F4D"/>
<path d="M211.784 124.234C211.744 125.272 211.666 126.297 211.556 127.319C210.363 127.1 209.078 126.959 207.731 126.834C203.063 126.359 197.778 125.816 194.709 120.475C191.644 115.15 193.828 110.319 195.753 106.05C197.609 101.947 199.222 98.4031 196.944 94.4406C194.647 90.475 190.775 90.0844 186.3 89.625C181.631 89.1594 176.35 88.6188 173.278 83.2781C170.2 77.9375 172.397 73.1125 174.316 68.8531C175.328 66.6219 176.272 64.55 176.534 62.4875C177.494 63 178.438 63.5063 179.388 64.0656C178.922 66.2 178.009 68.2156 177.141 70.1219C175.281 74.2188 173.684 77.7688 175.959 81.7313C178.241 85.6938 182.116 86.0969 186.606 86.5438C191.272 87.025 196.541 87.5688 199.625 92.9031C202.694 98.2281 200.506 103.059 198.584 107.334C196.728 111.431 195.116 114.978 197.391 118.941C199.688 122.903 203.556 123.294 208.034 123.753C209.266 123.884 210.534 124.003 211.784 124.234Z" fill="#0A2F4D"/>
<path d="M113.25 177.241C111.237 176.066 109.297 174.791 107.425 173.413C106.447 169.3 108.169 165.525 109.719 162.1C111.575 157.981 113.172 154.453 110.894 150.488C108.612 146.528 104.741 146.125 100.25 145.675C95.5812 145.197 90.3156 144.653 87.2344 139.313C84.1656 133.991 86.3469 129.156 88.2719 124.888C90.1281 120.784 91.7406 117.238 89.4594 113.275C87.6969 110.228 84.9844 109.303 81.7937 108.822C81.975 107.8 82.1937 106.791 82.4125 105.784C86.1 106.356 89.775 107.625 92.1437 111.731C95.2312 117.066 93.025 121.9 91.1062 126.169C89.2469 130.275 87.6344 133.819 89.9094 137.781C92.2062 141.744 96.0812 142.131 100.559 142.594C105.222 143.059 110.506 143.603 113.575 148.944C116.656 154.284 114.456 159.113 112.537 163.369C110.678 167.472 109.066 171.016 111.356 174.981C111.9 175.925 112.537 176.666 113.25 177.241Z" fill="#0A2F4D"/>
<path d="M134.306 185.072C127.8 183.866 121.634 181.709 115.959 178.744C117.744 179.369 119.803 179.562 122.006 179.794C126.309 180.241 131.178 180.737 134.306 185.072Z" fill="#0A2F4D"/>
<path d="M134.306 170.026C134.306 170.026 241.015 77.1477 228.85 52.9009C222.881 45.1572 191.765 65.7977 191.765 65.7977" stroke="#0A2F4D" stroke-width="4.42243" stroke-miterlimit="10" stroke-linecap="round" stroke-linejoin="round"/>
<path d="M217.115 97.1602C238.106 72.4384 252.993 49.2446 247.309 37.9103C244.484 34.2478 237.203 35.6259 229.203 38.7697" stroke="#0A2F4D" stroke-width="4.42243" stroke-miterlimit="10" stroke-linecap="round" stroke-linejoin="round"/>
<path d="M146.309 144.744C146.309 144.744 96.9966 188.088 84.5279 188.601C72.056 189.119 91.1654 170.026 91.1654 170.026" stroke="#0A2F4D" stroke-width="4.42243" stroke-miterlimit="10" stroke-linecap="round" stroke-linejoin="round"/>
<path d="M163.778 152.626C163.778 152.626 88.3654 218.913 69.2935 219.7" stroke="#0A2F4D" stroke-width="4.42243" stroke-miterlimit="10" stroke-linecap="round" stroke-linejoin="round"/>
<path d="M80.2998 170.026C80.2998 170.026 58.2623 199.954 69.2935 204.601" stroke="#0A2F4D" stroke-width="4.42243" stroke-miterlimit="10" stroke-linecap="round" stroke-linejoin="round"/>
<path d="M221.719 43.4563C221.719 44.725 220.688 45.7625 219.419 45.7625C218.147 45.7625 217.116 44.725 217.116 43.4563C217.116 42.1875 218.147 41.1562 219.419 41.1562C220.688 41.1562 221.719 42.1875 221.719 43.4563Z" fill="#0A2F4D"/>
<path d="M171.744 148.722C171.744 149.991 170.713 151.022 169.441 151.022C168.172 151.022 167.141 149.991 167.141 148.722C167.141 147.447 168.172 146.422 169.441 146.422C170.713 146.422 171.744 147.447 171.744 148.722Z" fill="#0A2F4D"/>
<path d="M85.3312 165.575C85.3312 166.844 84.3 167.875 83.025 167.875C81.7531 167.875 80.7219 166.844 80.7219 165.575C80.7219 164.3 81.7531 163.275 83.025 163.275C84.3 163.275 85.3312 164.3 85.3312 165.575Z" fill="#0A2F4D"/>
<path d="M55.3248 210.313C55.3248 210.313 45.2529 225.791 57.6873 229.085" stroke="#0A2F4D" stroke-width="4.42243" stroke-miterlimit="10" stroke-linecap="round" stroke-linejoin="round"/>
<path d="M106.425 80.8914C106.425 80.8914 125.009 59.4321 156.903 65.0884" stroke="#0A2F4D" stroke-width="4.42243" stroke-miterlimit="10" stroke-linecap="round" stroke-linejoin="round"/>
<path d="M166.922 66.6375C166.922 68.0094 165.803 69.1281 164.422 69.1281C163.044 69.1281 161.922 68.0094 161.922 66.6375C161.922 65.2531 163.044 64.1406 164.422 64.1406C165.803 64.1406 166.922 65.2531 166.922 66.6375Z" fill="#0A2F4D"/>
</g>
<defs>
<clipPath id="clip0_15_420">
<rect width="300" height="300" fill="white"/>
</clipPath>
</defs>
</svg>
